<?xml version="1.0" encoding="UTF-8"?>
<svg id="Layer_2" data-name="Layer 2" xmlns="http://www.w3.org/2000/svg" viewBox="0 0 267.15 267.15">
  <g id="_000000_LOGOS" data-name="000000 LOGOS">
    <path id="ICON" d="M0,10.78v245.59c0,5.95,4.83,10.78,10.78,10.78h245.59c5.95,0,10.78-4.83,10.78-10.78V10.78c0-5.95-4.83-10.78-10.78-10.78H10.78C4.83,0,0,4.83,0,10.78ZM144.71,49.93h0c30.66-18.27,70.98-32.41,109.27-36.4v28.98c-35.06,1.25-71.07,17.85-86.2,26.49-6.81-6.33-15.67-13.58-23.07-19.08h0ZM13.36,13.48c55.64,3.91,106.07,26.72,144.89,62.06-8.29,5.28-16.21,11.15-23.72,17.58C101.47,64.61,59.5,46.14,13.36,42.45V13.48ZM13.36,61.78c40.61,3.58,77.6,19.75,107.04,44.6-5.41,5.55-10.48,11.36-15.21,17.41-25.36-21.3-57.04-35.3-91.82-38.79v-23.21ZM253.98,85.24h-.03c-85.18,8.89-151.59,80.87-151.68,168.38h-30.46c0-50.14,18.65-98.09,52.53-135.02,33.66-36.69,79.4-59.39,128.79-63.92l.84-.08v30.63Z"/>
  </g>
</svg>