<?xml version="1.0" encoding="UTF-8"?>
<svg id="Layer_2" data-name="Layer 2" xmlns="http://www.w3.org/2000/svg" viewBox="0 0 617.09 136.22">
  <defs>
    <style>
      .cls-1 {
        fill: #fff;
      }

      .cls-2 {
        fill: #00d3f3;
      }
    </style>
  </defs>
  <g id="BACKGROUNDS">
    <path class="cls-1" d="M168.13,76.03v-42.86h8.21l18.25,30.25h-4.35l17.88-30.25h8.27v42.86h-9.25l-.12-28.6h1.84l-14.45,24h-4.41l-14.63-24h2.02v28.6h-9.25Z"/>
    <path class="cls-1" d="M239.83,76.52c-2.78,0-5.23-.53-7.35-1.59-2.12-1.06-3.78-2.69-4.96-4.9-1.18-2.2-1.78-4.98-1.78-8.33v-18.62h9.55v17.15c0,2.78.58,4.81,1.75,6.09,1.16,1.29,2.81,1.93,4.93,1.93,1.47,0,2.78-.33,3.92-.98,1.14-.65,2.05-1.63,2.72-2.94.67-1.31,1.01-2.94,1.01-4.9v-16.35h9.49v32.94h-9.06v-9.12l1.65,2.69c-1.14,2.29-2.78,4.01-4.9,5.17-2.12,1.16-4.45,1.75-6.98,1.75Z"/>
    <path class="cls-1" d="M268,76.03V30.6h9.55v45.44h-9.55ZM275.9,69.3l.24-11.7,15.37-14.51h11.39l-14.76,15-4.96,4.1-7.29,7.1ZM292.55,76.03l-11.14-13.84,6-7.41,16.72,21.25h-11.57Z"/>
    <path class="cls-1" d="M321.15,76.52c-2.78,0-5.23-.53-7.35-1.59-2.12-1.06-3.78-2.69-4.96-4.9-1.18-2.2-1.78-4.98-1.78-8.33v-18.62h9.55v17.15c0,2.78.58,4.81,1.75,6.09,1.16,1.29,2.81,1.93,4.93,1.93,1.47,0,2.78-.33,3.92-.98,1.14-.65,2.05-1.63,2.72-2.94.67-1.31,1.01-2.94,1.01-4.9v-16.35h9.49v32.94h-9.06v-9.12l1.65,2.69c-1.14,2.29-2.78,4.01-4.9,5.17-2.12,1.16-4.45,1.75-6.98,1.75Z"/>
    <path class="cls-1" d="M353.48,88.4c-1.67,0-3.35-.27-5.02-.8-1.67-.53-3.06-1.27-4.16-2.2l3.49-6.86c.73.69,1.58,1.22,2.54,1.59.96.37,1.93.55,2.91.55,1.31,0,2.36-.32,3.15-.95.8-.63,1.52-1.68,2.17-3.15l1.71-4.04.73-1.04,11.88-28.41h9.12l-14.88,34.96c-1.06,2.69-2.28,4.79-3.64,6.28-1.37,1.49-2.88,2.54-4.53,3.15-1.65.61-3.48.92-5.48.92ZM359.11,77.32l-14.63-34.23h9.8l11.45,27.62-6.61,6.61Z"/>
    <path class="cls-1" d="M399.83,76.52c-2.78,0-5.23-.53-7.35-1.59-2.12-1.06-3.78-2.69-4.96-4.9-1.18-2.2-1.78-4.98-1.78-8.33v-18.62h9.55v17.15c0,2.78.58,4.81,1.75,6.09,1.16,1.29,2.81,1.93,4.93,1.93,1.47,0,2.78-.33,3.92-.98,1.14-.65,2.05-1.63,2.72-2.94.67-1.31,1.01-2.94,1.01-4.9v-16.35h9.49v32.94h-9.06v-9.12l1.65,2.69c-1.14,2.29-2.78,4.01-4.9,5.17-2.12,1.16-4.45,1.75-6.98,1.75Z"/>
    <path class="cls-2" d="M442.33,76.77c-3.43,0-6.73-.46-9.89-1.38-3.16-.92-5.71-2.11-7.62-3.58l3.37-7.47c1.8,1.31,3.96,2.38,6.49,3.21,2.53.84,5.08,1.26,7.65,1.26,1.96,0,3.54-.2,4.75-.61,1.2-.41,2.09-.95,2.66-1.62.57-.67.86-1.46.86-2.36,0-1.14-.45-2.05-1.35-2.73-.9-.67-2.09-1.22-3.58-1.65-1.49-.43-3.11-.84-4.87-1.22-1.76-.39-3.52-.86-5.3-1.41-1.78-.55-3.41-1.29-4.9-2.2-1.49-.92-2.67-2.12-3.55-3.61-.88-1.49-1.32-3.36-1.32-5.6,0-2.45.65-4.68,1.96-6.71,1.31-2.02,3.3-3.63,5.97-4.84,2.67-1.2,6.03-1.81,10.07-1.81,2.69,0,5.36.33,7.99.98,2.63.65,4.93,1.59,6.89,2.82l-3.12,7.47c-1.92-1.1-3.9-1.93-5.94-2.48-2.04-.55-4-.83-5.88-.83s-3.53.21-4.71.64c-1.18.43-2.05,1.01-2.6,1.74s-.83,1.55-.83,2.45c0,1.14.45,2.06,1.35,2.76.9.69,2.08,1.24,3.55,1.62,1.47.39,3.1.78,4.9,1.16,1.8.39,3.57.87,5.33,1.44,1.75.57,3.37,1.3,4.84,2.17,1.47.88,2.66,2.06,3.58,3.55.92,1.49,1.38,3.34,1.38,5.54,0,2.41-.66,4.61-1.99,6.61-1.33,2-3.34,3.61-6.03,4.84s-6.06,1.84-10.1,1.84Z"/>
    <path class="cls-2" d="M466.58,76.03v-32.94h9.12v8.94l-1.71-2.57c1.1-2.24,2.71-3.95,4.84-5.11,2.12-1.16,4.51-1.75,7.16-1.75,3.02,0,5.67.77,7.96,2.3,2.29,1.53,3.8,3.87,4.53,7.01l-3.37-.92c1.1-2.53,2.86-4.56,5.27-6.09,2.41-1.53,5.2-2.3,8.39-2.3,2.61,0,4.93.52,6.95,1.56s3.6,2.63,4.75,4.78c1.14,2.14,1.71,4.89,1.71,8.24v18.86h-9.55v-17.39c0-2.65-.54-4.61-1.62-5.88-1.08-1.26-2.6-1.9-4.56-1.9-1.43,0-2.69.32-3.8.95-1.1.63-1.95,1.57-2.54,2.82-.59,1.25-.89,2.87-.89,4.87v16.53h-9.55v-17.39c0-2.65-.54-4.61-1.62-5.88-1.08-1.26-2.64-1.9-4.68-1.9-1.39,0-2.63.32-3.74.95-1.1.63-1.96,1.57-2.57,2.82-.61,1.25-.92,2.87-.92,4.87v16.53h-9.55Z"/>
    <path class="cls-2" d="M540.98,76.52c-2.53,0-4.71-.44-6.55-1.32-1.84-.88-3.26-2.07-4.26-3.58-1-1.51-1.5-3.2-1.5-5.08s.48-3.62,1.44-5.11c.96-1.49,2.48-2.64,4.56-3.46,2.08-.82,4.82-1.22,8.21-1.22h8.7v5.51h-7.72c-2.25,0-3.79.37-4.62,1.1-.84.73-1.26,1.65-1.26,2.76,0,1.22.48,2.19,1.44,2.91.96.71,2.26,1.07,3.89,1.07s3.09-.37,4.38-1.1,2.19-1.86,2.72-3.37l1.47,4.47c-.69,2.04-1.96,3.62-3.8,4.75-1.84,1.12-4.21,1.68-7.1,1.68ZM551.02,76.03v-6.43l-.61-1.41v-11.51c0-2.04-.62-3.63-1.87-4.78-1.25-1.14-3.15-1.71-5.73-1.71-1.76,0-3.48.28-5.17.83-1.69.55-3.15,1.3-4.38,2.23l-3.37-6.67c1.8-1.31,3.96-2.3,6.49-2.97,2.53-.67,5.1-1.01,7.72-1.01,5.02,0,8.92,1.18,11.7,3.55,2.78,2.37,4.16,6.06,4.16,11.08v18.8h-8.94Z"/>
    <path class="cls-2" d="M568.59,76.03v-32.94h9.12v9.37l-1.29-2.76c.98-2.33,2.55-4.09,4.72-5.3,2.16-1.2,4.8-1.81,7.9-1.81v8.88c-.37-.08-.73-.14-1.07-.18-.35-.04-.68-.06-1.01-.06-2.69,0-4.84.76-6.43,2.27-1.59,1.51-2.39,3.84-2.39,6.98v15.55h-9.55Z"/>
    <path class="cls-2" d="M591.98,50.44v-7.35h22.84v7.35h-22.84ZM609.38,76.52c-3.88,0-6.9-.99-9.06-2.97-2.16-1.98-3.25-4.93-3.25-8.85v-28.9h9.61v28.72c0,1.39.36,2.47,1.07,3.25.71.78,1.68,1.16,2.91,1.16,1.55,0,2.86-.41,3.92-1.22l2.51,6.74c-.94.69-2.09,1.21-3.46,1.56-1.37.35-2.79.52-4.26.52Z"/>
  </g>
  <g id="_00D3F3_LOGOS" data-name="00D3F3 LOGOS">
    <g>
      <path class="cls-1" d="M167.38,112.3v-19.73h2.09v19.73h-2.09Z"/>
      <path class="cls-1" d="M175.47,112.3v-14.8h1.92v4.06l-.31-.76c.47-1.07,1.22-1.91,2.26-2.52,1.03-.61,2.26-.92,3.69-.92,1.2,0,2.26.23,3.17.69.91.46,1.63,1.16,2.14,2.1.52.94.78,2.12.78,3.55v8.6h-2v-8.4c0-1.56-.39-2.74-1.17-3.54-.78-.8-1.87-1.2-3.28-1.2-1.05,0-1.97.21-2.75.63-.78.42-1.38,1.03-1.8,1.83-.42.8-.63,1.76-.63,2.89v7.78h-2Z"/>
      <path class="cls-1" d="M192.21,99.16v-1.66h9.16v1.66h-9.16ZM199.2,112.44c-1.39,0-2.46-.38-3.21-1.13-.75-.75-1.13-1.81-1.13-3.19v-13.9h2v13.78c0,.86.22,1.53.66,2,.44.47,1.08.7,1.9.7.88,0,1.62-.25,2.2-.76l.7,1.44c-.39.36-.87.62-1.42.79-.55.17-1.12.25-1.71.25Z"/>
      <path class="cls-1" d="M211.72,112.44c-1.54,0-2.89-.32-4.06-.97-1.17-.65-2.08-1.54-2.73-2.68-.66-1.14-.99-2.44-.99-3.9s.31-2.76.94-3.89c.63-1.13,1.49-2.02,2.59-2.66,1.1-.65,2.33-.97,3.71-.97s2.63.31,3.71.94c1.08.63,1.93,1.51,2.55,2.65.62,1.14.93,2.45.93,3.93,0,.09,0,.19-.01.3,0,.1-.01.21-.01.32h-12.88v-1.49h11.81l-.79.59c0-1.07-.23-2.02-.69-2.86-.46-.84-1.09-1.49-1.87-1.96-.79-.47-1.7-.7-2.73-.7s-1.93.24-2.73.7c-.81.47-1.44,1.13-1.89,1.97-.45.85-.68,1.81-.68,2.9v.31c0,1.13.25,2.12.75,2.97.5.86,1.19,1.52,2.09,2,.89.48,1.91.72,3.06.72.9,0,1.74-.16,2.52-.48.78-.32,1.45-.81,2.02-1.47l1.13,1.3c-.66.79-1.48,1.39-2.47,1.8-.99.41-2.07.62-3.26.62Z"/>
      <path class="cls-1" d="M222.46,112.3v-20.92h2v20.92h-2Z"/>
      <path class="cls-1" d="M230.04,112.3v-20.92h2v20.92h-2Z"/>
      <path class="cls-1" d="M238.64,94.23c-.41,0-.76-.14-1.04-.42-.28-.28-.42-.62-.42-1.01s.14-.73.42-1c.28-.27.63-.41,1.04-.41s.76.13,1.04.39c.28.26.42.59.42.99s-.14.76-.41,1.04c-.27.28-.63.42-1.06.42ZM237.62,112.3v-14.8h2v14.8h-2Z"/>
      <path class="cls-1" d="M251.15,111.74c-1.41,0-2.68-.31-3.81-.92-1.13-.61-2.02-1.46-2.66-2.55-.65-1.09-.97-2.34-.97-3.75s.32-2.65.97-3.74c.65-1.08,1.54-1.92,2.66-2.52,1.13-.6,2.4-.9,3.81-.9,1.32,0,2.5.27,3.55.82,1.05.55,1.89,1.35,2.51,2.42.62,1.07.93,2.38.93,3.92s-.31,2.85-.93,3.92c-.62,1.07-1.46,1.89-2.51,2.45-1.05.56-2.24.85-3.55.85ZM251.52,117.91c-1.35,0-2.65-.2-3.89-.59-1.24-.39-2.25-.96-3.02-1.69l1.01-1.52c.7.62,1.55,1.11,2.58,1.48,1.02.37,2.11.55,3.26.55,1.88,0,3.26-.44,4.14-1.31.88-.87,1.33-2.23,1.33-4.07v-3.69l.28-2.54-.2-2.54v-4.48h1.92v13c0,2.56-.62,4.43-1.87,5.62-1.25,1.19-3.1,1.79-5.54,1.79ZM251.35,109.96c1.09,0,2.06-.23,2.9-.69.85-.46,1.51-1.1,2-1.92.49-.82.73-1.76.73-2.83s-.24-2.01-.73-2.82c-.49-.81-1.16-1.44-2-1.9-.85-.46-1.81-.69-2.9-.69s-2.03.23-2.89.69c-.86.46-1.52,1.09-2,1.9-.48.81-.72,1.75-.72,2.82s.24,2.02.72,2.83c.48.82,1.15,1.46,2,1.92.85.46,1.82.69,2.89.69Z"/>
      <path class="cls-1" d="M270.8,112.44c-1.54,0-2.89-.32-4.06-.97-1.17-.65-2.08-1.54-2.73-2.68-.66-1.14-.99-2.44-.99-3.9s.31-2.76.94-3.89c.63-1.13,1.49-2.02,2.59-2.66,1.1-.65,2.33-.97,3.71-.97s2.63.31,3.71.94c1.08.63,1.93,1.51,2.55,2.65.62,1.14.93,2.45.93,3.93,0,.09,0,.19-.01.3,0,.1-.01.21-.01.32h-12.88v-1.49h11.81l-.79.59c0-1.07-.23-2.02-.69-2.86-.46-.84-1.09-1.49-1.87-1.96-.79-.47-1.7-.7-2.73-.7s-1.93.24-2.73.7c-.81.47-1.44,1.13-1.89,1.97-.45.85-.68,1.81-.68,2.9v.31c0,1.13.25,2.12.75,2.97.5.86,1.19,1.52,2.09,2,.89.48,1.91.72,3.06.72.9,0,1.74-.16,2.52-.48.78-.32,1.45-.81,2.02-1.47l1.13,1.3c-.66.79-1.48,1.39-2.47,1.8-.99.41-2.07.62-3.26.62Z"/>
      <path class="cls-1" d="M281.54,112.3v-14.8h1.92v4.06l-.31-.76c.47-1.07,1.22-1.91,2.26-2.52,1.03-.61,2.26-.92,3.69-.92,1.2,0,2.26.23,3.17.69.91.46,1.63,1.16,2.14,2.1.52.94.78,2.12.78,3.55v8.6h-2v-8.4c0-1.56-.39-2.74-1.17-3.54-.78-.8-1.87-1.2-3.28-1.2-1.05,0-1.97.21-2.75.63-.78.42-1.38,1.03-1.8,1.83-.42.8-.63,1.76-.63,2.89v7.78h-2Z"/>
      <path class="cls-1" d="M298.29,99.16v-1.66h9.16v1.66h-9.16ZM305.28,112.44c-1.39,0-2.46-.38-3.21-1.13-.75-.75-1.13-1.81-1.13-3.19v-13.9h2v13.78c0,.86.22,1.53.66,2,.44.47,1.08.7,1.9.7.88,0,1.62-.25,2.2-.76l.7,1.44c-.39.36-.87.62-1.42.79-.55.17-1.12.25-1.71.25Z"/>
      <path class="cls-1" d="M323.69,112.3v-17.93h-6.93v-1.8h15.96v1.8h-6.93v17.93h-2.09Z"/>
      <path class="cls-1" d="M340.35,112.44c-1.54,0-2.89-.32-4.06-.97-1.17-.65-2.08-1.54-2.73-2.68-.66-1.14-.99-2.44-.99-3.9s.31-2.76.94-3.89c.63-1.13,1.49-2.02,2.59-2.66,1.1-.65,2.33-.97,3.71-.97s2.63.31,3.71.94c1.08.63,1.93,1.51,2.55,2.65.62,1.14.93,2.45.93,3.93,0,.09,0,.19-.01.3,0,.1-.01.21-.01.32h-12.88v-1.49h11.81l-.79.59c0-1.07-.23-2.02-.69-2.86-.46-.84-1.09-1.49-1.87-1.96-.79-.47-1.7-.7-2.73-.7s-1.93.24-2.73.7c-.81.47-1.44,1.13-1.89,1.97-.45.85-.68,1.81-.68,2.9v.31c0,1.13.25,2.12.75,2.97.5.86,1.19,1.52,2.09,2,.89.48,1.91.72,3.06.72.9,0,1.74-.16,2.52-.48.78-.32,1.45-.81,2.02-1.47l1.13,1.3c-.66.79-1.48,1.39-2.47,1.8-.99.41-2.07.62-3.26.62Z"/>
      <path class="cls-1" d="M357.23,112.44c-1.47,0-2.78-.32-3.93-.97-1.16-.65-2.06-1.54-2.72-2.68-.66-1.14-.99-2.44-.99-3.9s.33-2.79.99-3.92c.66-1.13,1.56-2.01,2.72-2.65,1.16-.64,2.47-.96,3.93-.96,1.26,0,2.4.24,3.41.73,1.01.49,1.81,1.22,2.4,2.2l-1.49,1.01c-.51-.75-1.14-1.31-1.89-1.66-.75-.36-1.57-.54-2.45-.54-1.05,0-2,.24-2.85.72-.85.48-1.51,1.15-2,2.02-.49.86-.73,1.88-.73,3.04s.24,2.18.73,3.04c.49.86,1.16,1.54,2,2.02.85.48,1.79.72,2.85.72.88,0,1.7-.18,2.45-.54.75-.36,1.38-.9,1.89-1.64l1.49,1.01c-.58.96-1.38,1.69-2.4,2.18-1.02.5-2.15.75-3.41.75Z"/>
      <path class="cls-1" d="M366.73,112.3v-20.92h2v10.18l-.39-.76c.47-1.07,1.22-1.91,2.26-2.52,1.03-.61,2.26-.92,3.69-.92,1.2,0,2.26.23,3.17.69.91.46,1.63,1.16,2.14,2.1.52.94.78,2.12.78,3.55v8.6h-2v-8.4c0-1.56-.39-2.74-1.17-3.54-.78-.8-1.87-1.2-3.28-1.2-1.05,0-1.97.21-2.75.63-.78.42-1.38,1.03-1.8,1.83-.42.8-.63,1.76-.63,2.89v7.78h-2Z"/>
      <path class="cls-1" d="M385.79,112.3v-14.8h1.92v4.06l-.31-.76c.47-1.07,1.22-1.91,2.26-2.52,1.03-.61,2.26-.92,3.69-.92,1.2,0,2.26.23,3.17.69.91.46,1.63,1.16,2.14,2.1.52.94.78,2.12.78,3.55v8.6h-2v-8.4c0-1.56-.39-2.74-1.17-3.54-.78-.8-1.87-1.2-3.28-1.2-1.05,0-1.97.21-2.75.63-.78.42-1.38,1.03-1.8,1.83-.42.8-.63,1.76-.63,2.89v7.78h-2Z"/>
      <path class="cls-1" d="M410.88,112.44c-1.45,0-2.73-.32-3.86-.97-1.13-.65-2.02-1.55-2.68-2.69-.66-1.15-.99-2.44-.99-3.89s.33-2.79.99-3.92c.66-1.13,1.55-2.01,2.68-2.65,1.13-.64,2.41-.96,3.86-.96s2.77.32,3.9.97c1.14.65,2.03,1.53,2.68,2.65.65,1.12.97,2.42.97,3.9s-.32,2.77-.97,3.9c-.65,1.14-1.55,2.03-2.69,2.68-1.15.65-2.44.97-3.89.97ZM410.88,110.67c1.07,0,2.02-.24,2.85-.72.83-.48,1.48-1.16,1.96-2.03.48-.87.72-1.88.72-3.03s-.24-2.18-.72-3.04c-.48-.86-1.13-1.54-1.96-2.02-.83-.48-1.77-.72-2.82-.72s-1.99.24-2.82.72c-.83.48-1.48,1.15-1.97,2.02-.49.86-.73,1.88-.73,3.04s.24,2.16.73,3.03c.49.87,1.14,1.55,1.96,2.03.82.48,1.75.72,2.8.72Z"/>
      <path class="cls-1" d="M422.52,112.3v-20.92h2v20.92h-2Z"/>
      <path class="cls-1" d="M436.13,112.44c-1.45,0-2.73-.32-3.86-.97-1.13-.65-2.02-1.55-2.68-2.69-.66-1.15-.99-2.44-.99-3.89s.33-2.79.99-3.92c.66-1.13,1.55-2.01,2.68-2.65,1.13-.64,2.41-.96,3.86-.96s2.77.32,3.9.97c1.14.65,2.03,1.53,2.68,2.65.65,1.12.97,2.42.97,3.9s-.32,2.77-.97,3.9c-.65,1.14-1.55,2.03-2.69,2.68-1.15.65-2.44.97-3.89.97ZM436.13,110.67c1.07,0,2.02-.24,2.85-.72.83-.48,1.48-1.16,1.96-2.03.48-.87.72-1.88.72-3.03s-.24-2.18-.72-3.04c-.48-.86-1.13-1.54-1.96-2.02-.83-.48-1.77-.72-2.82-.72s-1.99.24-2.82.72c-.83.48-1.48,1.15-1.97,2.02-.49.86-.73,1.88-.73,3.04s.24,2.16.73,3.03c.49.87,1.14,1.55,1.96,2.03.82.48,1.75.72,2.8.72Z"/>
      <path class="cls-1" d="M453.72,111.74c-1.41,0-2.68-.31-3.81-.92-1.13-.61-2.02-1.46-2.66-2.55-.65-1.09-.97-2.34-.97-3.75s.32-2.65.97-3.74c.65-1.08,1.54-1.92,2.66-2.52,1.13-.6,2.4-.9,3.81-.9,1.32,0,2.5.27,3.55.82,1.05.55,1.89,1.35,2.51,2.42.62,1.07.93,2.38.93,3.92s-.31,2.85-.93,3.92c-.62,1.07-1.46,1.89-2.51,2.45-1.05.56-2.24.85-3.55.85ZM454.09,117.91c-1.35,0-2.65-.2-3.89-.59-1.24-.39-2.25-.96-3.02-1.69l1.01-1.52c.7.62,1.55,1.11,2.58,1.48,1.02.37,2.11.55,3.26.55,1.88,0,3.26-.44,4.14-1.31.88-.87,1.33-2.23,1.33-4.07v-3.69l.28-2.54-.2-2.54v-4.48h1.92v13c0,2.56-.62,4.43-1.87,5.62-1.25,1.19-3.1,1.79-5.54,1.79ZM453.92,109.96c1.09,0,2.06-.23,2.9-.69.85-.46,1.51-1.1,2-1.92.49-.82.73-1.76.73-2.83s-.24-2.01-.73-2.82c-.49-.81-1.16-1.44-2-1.9-.85-.46-1.81-.69-2.9-.69s-2.03.23-2.89.69c-.86.46-1.52,1.09-2,1.9-.48.81-.72,1.75-.72,2.82s.24,2.02.72,2.83c.48.82,1.15,1.46,2,1.92.85.46,1.82.69,2.89.69Z"/>
      <path class="cls-1" d="M467.09,117.91c-.7,0-1.36-.11-1.99-.34-.63-.23-1.17-.56-1.62-1.01l.93-1.49c.38.36.78.63,1.23.83.44.2.93.3,1.48.3.66,0,1.23-.18,1.71-.55.48-.37.93-1.01,1.37-1.93l.96-2.17.23-.31,6.09-13.73h1.97l-7.41,16.58c-.41.96-.87,1.72-1.37,2.28-.5.56-1.04.96-1.62,1.2-.58.23-1.23.35-1.94.35ZM471.03,112.72l-6.82-15.22h2.09l6.03,13.59-1.3,1.64Z"/>
      <path class="cls-1" d="M495.5,112.47c-1.47,0-2.87-.24-4.21-.72-1.34-.48-2.38-1.09-3.11-1.85l.82-1.61c.69.68,1.63,1.25,2.8,1.71,1.17.46,2.41.69,3.71.69s2.25-.15,3.03-.47c.78-.31,1.35-.73,1.72-1.25.37-.53.55-1.11.55-1.75,0-.77-.22-1.39-.66-1.86-.44-.47-1.02-.84-1.73-1.11-.71-.27-1.5-.51-2.37-.72-.86-.21-1.73-.43-2.59-.66-.86-.23-1.66-.55-2.38-.94-.72-.39-1.31-.92-1.75-1.56s-.66-1.5-.66-2.55c0-.98.26-1.87.78-2.69.52-.82,1.31-1.48,2.38-1.97,1.07-.5,2.44-.75,4.12-.75,1.11,0,2.21.16,3.3.47,1.09.31,2.03.74,2.82,1.28l-.7,1.66c-.85-.56-1.74-.98-2.69-1.24-.95-.26-1.87-.39-2.75-.39-1.18,0-2.16.16-2.93.48-.77.32-1.34.75-1.71,1.28-.37.54-.55,1.14-.55,1.82,0,.77.22,1.39.66,1.86.44.47,1.02.84,1.75,1.1.72.26,1.52.5,2.38.7.86.21,1.72.43,2.58.68.85.24,1.64.56,2.37.94.72.39,1.31.9,1.75,1.54.44.64.66,1.48.66,2.51,0,.96-.26,1.85-.79,2.66-.53.82-1.33,1.48-2.41,1.97-1.08.5-2.47.75-4.16.75Z"/>
      <path class="cls-1" d="M513.01,112.44c-1.45,0-2.73-.32-3.86-.97-1.13-.65-2.02-1.55-2.68-2.69-.66-1.15-.99-2.44-.99-3.89s.33-2.79.99-3.92c.66-1.13,1.55-2.01,2.68-2.65,1.13-.64,2.41-.96,3.86-.96s2.77.32,3.9.97c1.14.65,2.03,1.53,2.68,2.65.65,1.12.97,2.42.97,3.9s-.32,2.77-.97,3.9c-.65,1.14-1.55,2.03-2.69,2.68-1.15.65-2.44.97-3.89.97ZM513.01,110.67c1.07,0,2.02-.24,2.85-.72.83-.48,1.48-1.16,1.96-2.03.48-.87.72-1.88.72-3.03s-.24-2.18-.72-3.04c-.48-.86-1.13-1.54-1.96-2.02-.83-.48-1.77-.72-2.82-.72s-1.99.24-2.82.72c-.83.48-1.48,1.15-1.97,2.02-.49.86-.73,1.88-.73,3.04s.24,2.16.73,3.03c.49.87,1.14,1.55,1.96,2.03.82.48,1.75.72,2.8.72Z"/>
      <path class="cls-1" d="M524.65,112.3v-20.92h2v20.92h-2Z"/>
      <path class="cls-1" d="M538.35,112.44c-1.26,0-2.36-.23-3.3-.7-.94-.47-1.67-1.17-2.18-2.11-.52-.94-.78-2.11-.78-3.52v-8.6h2v8.37c0,1.58.39,2.77,1.17,3.57.78.8,1.87,1.2,3.28,1.2,1.03,0,1.93-.21,2.69-.63.76-.42,1.34-1.04,1.75-1.85.4-.81.61-1.78.61-2.9v-7.75h2v14.8h-1.92v-4.06l.31.73c-.47,1.09-1.2,1.94-2.18,2.55-.99.61-2.14.92-3.45.92Z"/>
      <path class="cls-1" d="M548.86,99.16v-1.66h9.16v1.66h-9.16ZM555.85,112.44c-1.39,0-2.46-.38-3.21-1.13-.75-.75-1.13-1.81-1.13-3.19v-13.9h2v13.78c0,.86.22,1.53.66,2,.44.47,1.08.7,1.9.7.88,0,1.62-.25,2.2-.76l.7,1.44c-.39.36-.87.62-1.42.79-.55.17-1.12.25-1.71.25Z"/>
      <path class="cls-1" d="M563.63,94.23c-.41,0-.76-.14-1.04-.42-.28-.28-.42-.62-.42-1.01s.14-.73.42-1c.28-.27.63-.41,1.04-.41s.76.13,1.04.39c.28.26.42.59.42.99s-.14.76-.41,1.04c-.27.28-.63.42-1.06.42ZM562.62,112.3v-14.8h2v14.8h-2Z"/>
      <path class="cls-1" d="M576.23,112.44c-1.45,0-2.73-.32-3.86-.97-1.13-.65-2.02-1.55-2.68-2.69-.66-1.15-.99-2.44-.99-3.89s.33-2.79.99-3.92c.66-1.13,1.55-2.01,2.68-2.65,1.13-.64,2.41-.96,3.86-.96s2.77.32,3.9.97c1.14.65,2.03,1.53,2.68,2.65.65,1.12.97,2.42.97,3.9s-.32,2.77-.97,3.9c-.65,1.14-1.55,2.03-2.69,2.68-1.15.65-2.44.97-3.89.97ZM576.23,110.67c1.07,0,2.02-.24,2.85-.72.83-.48,1.48-1.16,1.96-2.03.48-.87.72-1.88.72-3.03s-.24-2.18-.72-3.04c-.48-.86-1.13-1.54-1.96-2.02-.83-.48-1.77-.72-2.82-.72s-1.99.24-2.82.72c-.83.48-1.48,1.15-1.97,2.02-.49.86-.73,1.88-.73,3.04s.24,2.16.73,3.03c.49.87,1.14,1.55,1.96,2.03.82.48,1.75.72,2.8.72Z"/>
      <path class="cls-1" d="M587.88,112.3v-14.8h1.92v4.06l-.31-.76c.47-1.07,1.22-1.91,2.26-2.52,1.03-.61,2.26-.92,3.69-.92,1.2,0,2.26.23,3.17.69.91.46,1.63,1.16,2.14,2.1.52.94.78,2.12.78,3.55v8.6h-2v-8.4c0-1.56-.39-2.74-1.17-3.54-.78-.8-1.87-1.2-3.28-1.2-1.05,0-1.97.21-2.75.63-.78.42-1.38,1.03-1.8,1.83-.42.8-.63,1.76-.63,2.89v7.78h-2Z"/>
      <path class="cls-1" d="M610.91,112.44c-1.22,0-2.38-.17-3.47-.52-1.09-.35-1.95-.78-2.57-1.31l.9-1.58c.6.45,1.37.84,2.31,1.17.94.33,1.93.49,2.96.49,1.41,0,2.42-.22,3.04-.66.62-.44.93-1.03.93-1.76,0-.54-.17-.97-.52-1.28-.35-.31-.8-.54-1.37-.7-.56-.16-1.19-.3-1.89-.41-.7-.11-1.39-.24-2.07-.39-.69-.15-1.31-.37-1.87-.66-.56-.29-1.02-.69-1.37-1.2-.35-.51-.52-1.18-.52-2.03s.23-1.53.68-2.17c.45-.64,1.11-1.14,1.99-1.51.87-.37,1.94-.55,3.2-.55.96,0,1.92.13,2.88.38s1.75.59,2.37,1l-.87,1.61c-.66-.45-1.36-.78-2.11-.97-.75-.2-1.5-.3-2.26-.3-1.33,0-2.32.23-2.95.69-.63.46-.94,1.05-.94,1.76,0,.56.17,1.01.52,1.32.35.32.81.57,1.38.75.57.18,1.2.32,1.89.44.69.11,1.37.25,2.06.41.69.16,1.32.38,1.89.65.57.27,1.03.66,1.38,1.16.35.5.52,1.15.52,1.96,0,.86-.24,1.61-.72,2.24-.48.63-1.17,1.12-2.09,1.47-.91.35-2.02.52-3.31.52Z"/>
    </g>
    <path class="cls-2" d="M0,5.5v125.23c0,3.04,2.46,5.5,5.5,5.5h125.23c3.04,0,5.5-2.46,5.5-5.5V5.5c0-3.04-2.46-5.5-5.5-5.5H5.5C2.46,0,0,2.46,0,5.5ZM73.79,25.46h0c15.63-9.32,36.19-16.52,55.72-18.56v14.78c-17.88.64-36.24,9.1-43.95,13.51-3.47-3.23-7.99-6.92-11.76-9.73h0ZM6.81,6.87c28.37,1.99,54.08,13.63,73.88,31.65-4.23,2.69-8.26,5.69-12.09,8.97C51.74,32.94,30.34,23.53,6.81,21.65V6.87ZM6.81,31.5c20.71,1.82,39.57,10.07,54.58,22.74-2.76,2.83-5.35,5.79-7.76,8.88-12.93-10.86-29.08-18-46.82-19.78v-11.84ZM129.51,43.46h-.01c-43.43,4.53-77.3,41.24-77.34,85.86h-15.53c0-25.57,9.51-50.02,26.78-68.85,17.16-18.71,40.49-30.29,65.67-32.59l.43-.04v15.62Z"/>
    <path class="cls-1" d="M129.08,27.88c-25.18,2.31-48.51,13.88-65.67,32.59-17.27,18.83-26.78,43.28-26.78,68.85h15.53c.05-44.62,33.91-81.33,77.34-85.86h.01v-15.62"/>
    <path class="cls-1" d="M129.51,21.68c-17.88.64-36.24,9.1-43.95,13.51-3.47-3.23-7.99-6.92-11.76-9.73,15.63-9.32,36.19-16.52,55.72-18.56v14.78Z"/>
    <path class="cls-1" d="M6.81,6.87c28.37,1.99,54.08,13.63,73.88,31.65-4.23,2.69-8.26,5.69-12.09,8.97C51.74,32.94,30.34,23.53,6.81,21.65V6.87Z"/>
    <path class="cls-1" d="M6.81,31.5c20.71,1.82,39.57,10.07,54.58,22.74-2.76,2.83-5.35,5.79-7.76,8.88-12.93-10.86-29.08-18-46.82-19.78v-11.84Z"/>
  </g>
</svg>