<?xml version="1.0" encoding="UTF-8"?>
<svg id="Layer_2" data-name="Layer 2" xmlns="http://www.w3.org/2000/svg" viewBox="0 0 251 265.68">
  <g id="_000000_LOGOS" data-name="000000 LOGOS">
    <path id="TEAL_ICON" data-name="TEAL ICON" d="M57.06,5.5v125.23c0,3.04,2.46,5.5,5.5,5.5h125.23c3.04,0,5.5-2.46,5.5-5.5V5.5c0-3.04-2.46-5.5-5.5-5.5H62.55c-3.04,0-5.5,2.46-5.5,5.5ZM130.85,25.46h0c15.63-9.32,36.19-16.52,55.72-18.56v14.78c-17.88.64-36.24,9.1-43.95,13.51-3.47-3.23-7.99-6.92-11.76-9.73h0ZM63.87,6.87c28.37,1.99,54.08,13.63,73.88,31.65-4.23,2.69-8.26,5.69-12.09,8.97-16.86-14.54-38.26-23.96-61.79-25.84V6.87ZM63.87,31.5c20.71,1.82,39.57,10.07,54.58,22.74-2.76,2.83-5.35,5.79-7.76,8.88-12.93-10.86-29.08-18-46.82-19.78v-11.84ZM186.56,43.46h-.01c-43.43,4.53-77.3,41.24-77.34,85.86h-15.53c0-25.57,9.51-50.02,26.78-68.85,17.16-18.71,40.49-30.29,65.67-32.59l.43-.04v15.62Z"/>
    <g>
      <path d="M0,206.03v-42.86h8.21l18.25,30.25h-4.35l17.88-30.25h8.27v42.86h-9.25l-.12-28.6h1.84l-14.45,24h-4.41l-14.63-24h2.02v28.6H0Z"/>
      <path d="M71.7,206.52c-2.78,0-5.23-.53-7.35-1.59-2.12-1.06-3.78-2.69-4.96-4.9-1.18-2.2-1.78-4.98-1.78-8.33v-18.62h9.55v17.15c0,2.78.58,4.81,1.75,6.09,1.16,1.29,2.81,1.93,4.93,1.93,1.47,0,2.78-.33,3.92-.98,1.14-.65,2.05-1.63,2.72-2.94.67-1.31,1.01-2.94,1.01-4.9v-16.35h9.49v32.94h-9.06v-9.12l1.65,2.69c-1.14,2.29-2.78,4.01-4.9,5.17-2.12,1.16-4.45,1.75-6.98,1.75Z"/>
      <path d="M99.87,206.03v-45.44h9.55v45.44h-9.55ZM107.77,199.29l.24-11.7,15.37-14.51h11.39l-14.76,15-4.96,4.1-7.29,7.1ZM124.43,206.03l-11.14-13.84,6-7.41,16.72,21.25h-11.57Z"/>
      <path d="M153.02,206.52c-2.78,0-5.23-.53-7.35-1.59-2.12-1.06-3.78-2.69-4.96-4.9-1.18-2.2-1.78-4.98-1.78-8.33v-18.62h9.55v17.15c0,2.78.58,4.81,1.75,6.09,1.16,1.29,2.81,1.93,4.93,1.93,1.47,0,2.78-.33,3.92-.98,1.14-.65,2.05-1.63,2.72-2.94.67-1.31,1.01-2.94,1.01-4.9v-16.35h9.49v32.94h-9.06v-9.12l1.65,2.69c-1.14,2.29-2.78,4.01-4.9,5.17-2.12,1.16-4.45,1.75-6.98,1.75Z"/>
      <path d="M185.35,218.4c-1.67,0-3.35-.27-5.02-.8-1.67-.53-3.06-1.27-4.16-2.2l3.49-6.86c.73.69,1.58,1.22,2.54,1.59.96.37,1.93.55,2.91.55,1.31,0,2.36-.32,3.15-.95.8-.63,1.52-1.68,2.17-3.15l1.71-4.04.73-1.04,11.88-28.41h9.12l-14.88,34.96c-1.06,2.69-2.28,4.79-3.64,6.28-1.37,1.49-2.88,2.54-4.53,3.15-1.65.61-3.48.92-5.48.92ZM190.99,207.32l-14.63-34.23h9.8l11.45,27.62-6.61,6.61Z"/>
      <path d="M231.71,206.52c-2.78,0-5.23-.53-7.35-1.59-2.12-1.06-3.78-2.69-4.96-4.9-1.18-2.2-1.78-4.98-1.78-8.33v-18.62h9.55v17.15c0,2.78.58,4.81,1.75,6.09,1.16,1.29,2.81,1.93,4.93,1.93,1.47,0,2.78-.33,3.92-.98,1.14-.65,2.05-1.63,2.72-2.94.67-1.31,1.01-2.94,1.01-4.9v-16.35h9.49v32.94h-9.06v-9.12l1.65,2.69c-1.14,2.29-2.78,4.01-4.9,5.17-2.12,1.16-4.45,1.75-6.98,1.75Z"/>
    </g>
    <g>
      <path d="M46.54,265.68c-3.43,0-6.73-.46-9.89-1.38-3.16-.92-5.71-2.11-7.62-3.58l3.37-7.47c1.8,1.31,3.96,2.38,6.49,3.21,2.53.84,5.08,1.26,7.65,1.26,1.96,0,3.54-.2,4.75-.61,1.2-.41,2.09-.95,2.66-1.62.57-.67.86-1.46.86-2.36,0-1.14-.45-2.05-1.35-2.73-.9-.67-2.09-1.22-3.58-1.65-1.49-.43-3.11-.84-4.87-1.22-1.76-.39-3.52-.86-5.3-1.41-1.78-.55-3.41-1.29-4.9-2.2-1.49-.92-2.67-2.12-3.55-3.61-.88-1.49-1.32-3.36-1.32-5.6,0-2.45.65-4.68,1.96-6.71,1.31-2.02,3.3-3.63,5.97-4.84,2.67-1.2,6.03-1.81,10.07-1.81,2.69,0,5.36.33,7.99.98,2.63.65,4.93,1.59,6.89,2.82l-3.12,7.47c-1.92-1.1-3.9-1.93-5.94-2.48-2.04-.55-4-.83-5.88-.83s-3.53.21-4.71.64c-1.18.43-2.05,1.01-2.6,1.74s-.83,1.55-.83,2.45c0,1.14.45,2.06,1.35,2.76.9.69,2.08,1.24,3.55,1.62,1.47.39,3.1.78,4.9,1.16,1.8.39,3.57.87,5.33,1.44,1.75.57,3.37,1.3,4.84,2.17,1.47.88,2.66,2.06,3.58,3.55.92,1.49,1.38,3.34,1.38,5.54,0,2.41-.66,4.61-1.99,6.61-1.33,2-3.34,3.61-6.03,4.84s-6.06,1.84-10.1,1.84Z"/>
      <path d="M70.79,264.94v-32.94h9.12v8.94l-1.71-2.57c1.1-2.24,2.71-3.95,4.84-5.11,2.12-1.16,4.51-1.75,7.16-1.75,3.02,0,5.67.77,7.96,2.3,2.29,1.53,3.8,3.87,4.53,7.01l-3.37-.92c1.1-2.53,2.86-4.56,5.27-6.09,2.41-1.53,5.2-2.3,8.39-2.3,2.61,0,4.93.52,6.95,1.56s3.6,2.63,4.75,4.78c1.14,2.14,1.71,4.89,1.71,8.24v18.86h-9.55v-17.39c0-2.65-.54-4.61-1.62-5.88-1.08-1.26-2.6-1.9-4.56-1.9-1.43,0-2.69.32-3.8.95-1.1.63-1.95,1.57-2.54,2.82-.59,1.25-.89,2.87-.89,4.87v16.53h-9.55v-17.39c0-2.65-.54-4.61-1.62-5.88-1.08-1.26-2.64-1.9-4.68-1.9-1.39,0-2.63.32-3.74.95-1.1.63-1.96,1.57-2.57,2.82-.61,1.25-.92,2.87-.92,4.87v16.53h-9.55Z"/>
      <path d="M145.19,265.43c-2.53,0-4.71-.44-6.55-1.32-1.84-.88-3.26-2.07-4.26-3.58-1-1.51-1.5-3.2-1.5-5.08s.48-3.62,1.44-5.11c.96-1.49,2.48-2.64,4.56-3.46,2.08-.82,4.82-1.22,8.21-1.22h8.7v5.51h-7.72c-2.25,0-3.79.37-4.62,1.1-.84.73-1.26,1.65-1.26,2.76,0,1.22.48,2.19,1.44,2.91.96.71,2.26,1.07,3.89,1.07s3.09-.37,4.38-1.1,2.19-1.86,2.72-3.37l1.47,4.47c-.69,2.04-1.96,3.62-3.8,4.75-1.84,1.12-4.21,1.68-7.1,1.68ZM155.23,264.94v-6.43l-.61-1.41v-11.51c0-2.04-.62-3.63-1.87-4.78-1.25-1.14-3.15-1.71-5.73-1.71-1.76,0-3.48.28-5.17.83-1.69.55-3.15,1.3-4.38,2.23l-3.37-6.67c1.8-1.31,3.96-2.3,6.49-2.97,2.53-.67,5.1-1.01,7.72-1.01,5.02,0,8.92,1.18,11.7,3.55,2.78,2.37,4.16,6.06,4.16,11.08v18.8h-8.94Z"/>
      <path d="M172.81,264.94v-32.94h9.12v9.37l-1.29-2.76c.98-2.33,2.55-4.09,4.72-5.3,2.16-1.2,4.8-1.81,7.9-1.81v8.88c-.37-.08-.73-.14-1.07-.18-.35-.04-.68-.06-1.01-.06-2.69,0-4.84.76-6.43,2.27-1.59,1.51-2.39,3.84-2.39,6.98v15.55h-9.55Z"/>
      <path d="M196.2,239.35v-7.35h22.84v7.35h-22.84ZM213.59,265.43c-3.88,0-6.9-.99-9.06-2.97-2.16-1.98-3.25-4.93-3.25-8.85v-28.9h9.61v28.72c0,1.39.36,2.47,1.07,3.25.71.78,1.68,1.16,2.91,1.16,1.55,0,2.86-.41,3.92-1.22l2.51,6.74c-.94.69-2.09,1.21-3.46,1.56-1.37.35-2.79.52-4.26.52Z"/>
    </g>
  </g>
</svg>